<svg width="364" height="76" viewBox="0 0 364 76" fill="none" xmlns="http://www.w3.org/2000/svg">
<path d="M92.5615 43L106.624 6.86719H114.144L128.206 43H120.491L116.731 33.3564H101.79L98.0303 43H92.5615ZM103.646 28.5469H114.876L109.261 14.1426L103.646 28.5469ZM162.41 41.5596C158.911 43.1221 154.736 43.9033 149.886 43.9033C143.961 43.9033 139.347 42.235 136.043 38.8984C132.739 35.5618 131.087 30.9069 131.087 24.9336C131.087 18.8464 132.747 14.167 136.067 10.8955C139.404 7.60775 144.157 5.96387 150.325 5.96387C154.264 5.96387 158.178 6.42773 162.068 7.35547V13.2393C157.658 11.693 153.963 10.9199 150.984 10.9199C147.176 10.9199 144.238 12.1325 142.171 14.5576C140.104 16.9665 139.07 20.3926 139.07 24.8359C139.07 29.1979 140.177 32.5996 142.391 35.041C144.62 37.4824 147.713 38.7031 151.668 38.7031C155.216 38.7031 158.797 37.8079 162.41 36.0176V41.5596ZM168.978 43V6.86719H182.503C189.843 6.86719 193.514 9.85384 193.514 15.8271C193.514 18.057 192.887 20.0915 191.634 21.9307C190.397 23.7536 188.688 25.1533 186.507 26.1299L198.323 43H189.168L180.208 28.2295H176.058V43H168.978ZM176.058 23.2734H177.791C183.243 23.2734 185.97 21.068 185.97 16.6572C185.97 13.4346 183.536 11.8232 178.67 11.8232H176.058V23.2734ZM220.003 43V6.86719H232.601C236.995 6.86719 240.128 7.60775 242 9.08887C243.888 10.5537 244.832 13.0114 244.832 16.4619C244.832 20.3682 243.571 23.4118 241.048 25.5928C238.541 27.7575 235.026 28.8398 230.501 28.8398H227.376V43H220.003ZM227.376 23.8838H228.841C231.412 23.8838 233.439 23.2897 234.92 22.1016C236.417 20.8971 237.166 19.2695 237.166 17.2188C237.166 13.6217 234.879 11.8232 230.306 11.8232H227.376V23.8838ZM261.922 43.6104C257.739 43.6104 254.41 42.349 251.937 39.8262C249.479 37.2871 248.25 33.8773 248.25 29.5967C248.25 25.2673 249.487 21.8493 251.961 19.3428C254.451 16.8363 257.828 15.583 262.093 15.583C266.373 15.583 269.751 16.8363 272.225 19.3428C274.715 21.8493 275.96 25.251 275.96 29.5479C275.96 33.9424 274.715 37.3848 272.225 39.875C269.734 42.3652 266.3 43.6104 261.922 43.6104ZM262.044 39.0938C266.194 39.0938 268.27 35.9118 268.27 29.5479C268.27 26.6344 267.716 24.3314 266.609 22.6387C265.519 20.946 264.013 20.0996 262.093 20.0996C260.188 20.0996 258.683 20.946 257.576 22.6387C256.486 24.3314 255.94 26.6507 255.94 29.5967C255.94 32.5101 256.486 34.8213 257.576 36.5303C258.667 38.2393 260.156 39.0938 262.044 39.0938ZM282.601 43V4.4502H289.827V28.6934H290.291L299.837 16.1934H305.843L297.029 27.668L308.602 43H299.812L290.291 29.5967H289.827V43H282.601ZM336.067 42.0967C332.633 43.1058 329.378 43.6104 326.302 43.6104C321.826 43.6104 318.294 42.3408 315.706 39.8018C313.118 37.2627 311.824 33.7959 311.824 29.4014C311.824 25.251 313.004 21.9144 315.364 19.3916C317.741 16.8525 320.874 15.583 324.764 15.583C328.686 15.583 331.551 16.82 333.357 19.2939C335.164 21.7679 336.067 25.6823 336.067 31.0371H319.441C319.93 36.1478 322.737 38.7031 327.864 38.7031C330.289 38.7031 333.024 38.1416 336.067 37.0186V42.0967ZM319.344 26.96H328.963C328.963 22.3864 327.49 20.0996 324.544 20.0996C321.549 20.0996 319.816 22.3864 319.344 26.96ZM343.538 43V16.1934H350.765V21.2471C352.636 17.471 355.485 15.583 359.31 15.583C359.765 15.583 360.213 15.6318 360.652 15.7295V22.1748C359.627 21.8005 358.675 21.6133 357.796 21.6133C354.915 21.6133 352.571 23.07 350.765 25.9834V43H343.538Z" fill="white"/>
<path d="M93.1743 71V61.6055H95.0532V68.48L99.3125 61.6055H101.045V71H99.1665V64.1191L94.9072 71H93.1743ZM104.174 71V61.6055H106.129V65.4204H110.014V61.6055H111.969V71H110.014V66.7153H106.129V71H104.174ZM118.024 71V69.667C116.949 69.667 116.069 69.3538 115.383 68.7275C114.698 68.097 114.355 67.2887 114.355 66.3027C114.355 65.3167 114.698 64.5085 115.383 63.8779C116.069 63.2474 116.949 62.9321 118.024 62.9321V61.6055H119.827V62.9321C120.901 62.9321 121.782 63.2474 122.467 63.8779C123.153 64.5085 123.496 65.3167 123.496 66.3027C123.496 67.2887 123.153 68.097 122.467 68.7275C121.782 69.3538 120.901 69.667 119.827 69.667V71H118.024ZM118.024 68.4546V64.1445C117.47 64.1445 117.019 64.3455 116.672 64.7476C116.329 65.1453 116.158 65.6637 116.158 66.3027C116.158 66.9417 116.329 67.4601 116.672 67.8579C117.019 68.2557 117.47 68.4546 118.024 68.4546ZM119.827 68.4546C120.381 68.4546 120.832 68.2557 121.179 67.8579C121.526 67.4601 121.699 66.9417 121.699 66.3027C121.699 65.6637 121.526 65.1453 121.179 64.7476C120.832 64.3455 120.381 64.1445 119.827 64.1445V68.4546ZM130.001 71.2349C128.575 71.2349 127.435 70.7863 126.58 69.8892C125.725 68.992 125.298 67.7965 125.298 66.3027C125.298 64.792 125.727 63.5923 126.586 62.7036C127.445 61.8149 128.605 61.3706 130.065 61.3706C131.516 61.3706 132.671 61.8149 133.53 62.7036C134.394 63.5923 134.825 64.7856 134.825 66.2837C134.825 67.8156 134.394 69.0238 133.53 69.9082C132.671 70.7926 131.495 71.2349 130.001 71.2349ZM130.027 69.9399C130.864 69.9399 131.527 69.612 132.013 68.9561C132.504 68.2959 132.75 67.403 132.75 66.2773C132.75 65.1855 132.504 64.3096 132.013 63.6494C131.522 62.9893 130.873 62.6592 130.065 62.6592C129.248 62.6592 128.594 62.9893 128.103 63.6494C127.617 64.3096 127.373 65.1919 127.373 66.2964C127.373 67.3924 127.617 68.2747 128.103 68.9434C128.59 69.6077 129.231 69.9399 130.027 69.9399ZM137.364 71V61.6055H140.639C141.782 61.6055 142.596 61.798 143.083 62.1831C143.574 62.564 143.819 63.203 143.819 64.1001C143.819 65.1157 143.491 65.9071 142.835 66.4741C142.184 67.0369 141.27 67.3184 140.093 67.3184H139.281V71H137.364ZM139.281 66.0298H139.662C140.33 66.0298 140.857 65.8753 141.242 65.5664C141.631 65.2533 141.826 64.8301 141.826 64.2969C141.826 63.3617 141.231 62.894 140.042 62.894H139.281V66.0298ZM146.116 71V61.6055H148.706L150.966 68.2134L153.296 61.6055H155.568V71H153.765V63.9097L151.474 70.3716H149.9L147.652 63.8145V71H146.116ZM157.675 71L161.331 61.6055H163.286L166.942 71H164.936L163.959 68.4927H160.074L159.097 71H157.675ZM160.556 67.2422H163.476L162.016 63.4971L160.556 67.2422ZM169.055 71V61.6055H171.01V69.667H174.895V61.6055H176.85V69.667H178.101V72.8789H176.222V71H169.055ZM180.372 71V61.6055H182.251V68.48L186.511 61.6055H188.243V71H186.365V64.1191L182.105 71H180.372ZM195.492 71.2349C194.066 71.2349 192.925 70.7863 192.07 69.8892C191.215 68.992 190.788 67.7965 190.788 66.3027C190.788 64.792 191.218 63.5923 192.077 62.7036C192.936 61.8149 194.095 61.3706 195.555 61.3706C197.007 61.3706 198.162 61.8149 199.021 62.7036C199.884 63.5923 200.316 64.7856 200.316 66.2837C200.316 67.8156 199.884 69.0238 199.021 69.9082C198.162 70.7926 196.985 71.2349 195.492 71.2349ZM195.517 69.9399C196.355 69.9399 197.017 69.612 197.504 68.9561C197.995 68.2959 198.24 67.403 198.24 66.2773C198.24 65.1855 197.995 64.3096 197.504 63.6494C197.013 62.9893 196.363 62.6592 195.555 62.6592C194.738 62.6592 194.085 62.9893 193.594 63.6494C193.107 64.3096 192.864 65.1919 192.864 66.2964C192.864 67.3924 193.107 68.2747 193.594 68.9434C194.08 69.6077 194.721 69.9399 195.517 69.9399ZM202.854 71V61.6055H204.809V65.4204H208.694V61.6055H210.649V71H208.694V66.7153H204.809V71H202.854ZM213.778 71V61.6055H215.733V65.4204H219.618V61.6055H221.573V71H219.618V66.7153H215.733V71H213.778ZM232.141 71V61.6055H234.058V71H232.141ZM224.701 71V61.6055H226.618V65.5283H227.247C228.643 65.5283 229.6 65.6891 230.116 66.0107C230.839 66.4593 231.201 67.1639 231.201 68.1245C231.201 69.1782 230.789 69.9611 229.964 70.4731C229.401 70.8244 228.4 71 226.961 71H224.701ZM226.618 69.7876H227.196C227.89 69.7876 228.41 69.6564 228.757 69.394C229.109 69.1274 229.284 68.7297 229.284 68.2007C229.284 67.714 229.111 67.3501 228.764 67.1089C228.421 66.8634 227.905 66.7407 227.215 66.7407H226.618V69.7876ZM238.9 58.7808H240.233V58.9331C240.233 59.2886 240.297 59.5552 240.424 59.7329C240.555 59.9064 240.752 59.9932 241.014 59.9932C241.276 59.9932 241.473 59.9043 241.604 59.7266C241.736 59.5488 241.801 59.2801 241.801 58.9204L241.795 58.7808H243.128C243.128 59.4621 242.95 59.972 242.595 60.3105C242.243 60.6491 241.716 60.8184 241.014 60.8184C240.307 60.8184 239.778 60.6491 239.427 60.3105C239.076 59.972 238.9 59.4621 238.9 58.7808ZM237.186 71V61.6055H239.065V68.48L243.325 61.6055H245.057V71H243.179V64.1191L238.919 71H237.186ZM253.257 71V61.6055H261.052V71H259.097V62.894H255.212V71H253.257ZM263.152 71L266.809 61.6055H268.764L272.42 71H270.414L269.437 68.4927H265.552L264.574 71H263.152ZM266.034 67.2422H268.954L267.494 63.4971L266.034 67.2422ZM274.533 71V61.6055H277.808C278.951 61.6055 279.766 61.798 280.252 62.1831C280.743 62.564 280.989 63.203 280.989 64.1001C280.989 65.1157 280.661 65.9071 280.005 66.4741C279.353 67.0369 278.439 67.3184 277.262 67.3184H276.45V71H274.533ZM276.45 66.0298H276.831C277.499 66.0298 278.026 65.8753 278.411 65.5664C278.801 65.2533 278.995 64.8301 278.995 64.2969C278.995 63.3617 278.401 62.894 277.212 62.894H276.45V66.0298ZM285.615 71V62.894H282.251V61.6055H290.941V62.894H287.577V71H285.615ZM293.041 71V61.6055H294.996V65.4204H298.881V61.6055H300.836V71H298.881V66.7153H294.996V71H293.041ZM303.965 71V61.6055H309.836V62.894H305.92V65.5156H309.132V66.7725H305.92V69.667H310.135V71H303.965ZM312.552 71V61.6055H315.828C316.97 61.6055 317.785 61.798 318.272 62.1831C318.762 62.564 319.008 63.203 319.008 64.1001C319.008 65.1157 318.68 65.9071 318.024 66.4741C317.372 67.0369 316.458 67.3184 315.282 67.3184H314.469V71H312.552ZM314.469 66.0298H314.85C315.519 66.0298 316.046 65.8753 316.431 65.5664C316.82 65.2533 317.015 64.8301 317.015 64.2969C317.015 63.3617 316.42 62.894 315.231 62.894H314.469V66.0298Z" fill="#959595"/>
<path d="M36.5 40.0703C36.5 40.0703 21.1016 55.5914 21.1016 63.7548C21.1016 70.5221 27.9962 76 36.5 76C45.0038 76 51.8984 70.5221 51.8984 63.7548C51.8984 55.5914 36.5 40.0703 36.5 40.0703Z" fill="#02B33B"/>
<path d="M36.5 38.9297C36.5 38.9297 21.1016 23.4086 21.1016 15.2452C21.1016 8.47785 27.9962 3 36.5 3C45.0038 3 51.8984 8.47785 51.8984 15.2452C51.8984 23.4086 36.5 38.9297 36.5 38.9297Z" fill="#02B33B"/>
<path d="M37.0703 39.5C37.0703 39.5 52.5914 54.8984 60.7548 54.8984C67.5221 54.8984 73 48.0038 73 39.5C73 30.9962 67.5221 24.1016 60.7548 24.1016C52.5914 24.1016 37.0703 39.5 37.0703 39.5Z" fill="#02B33B"/>
<path d="M35.9297 39.5C35.9297 39.5 20.4086 54.8984 12.2452 54.8984C5.47785 54.8984 0 48.0038 0 39.5C0 30.9962 5.47785 24.1016 12.2452 24.1016C20.4086 24.1016 35.9297 39.5 35.9297 39.5Z" fill="#02B33B"/>
</svg>
