<svg width="311" height="70" viewBox="0 0 311 70" fill="none" xmlns="http://www.w3.org/2000/svg">
<path d="M175 52.0733H180.778V38.9971H188.684C194.158 39.1492 198.72 34.7398 198.872 29.266C199.024 23.7922 194.614 19.2308 189.141 19.0787C188.989 19.0787 188.836 19.0787 188.684 19.0787H175V52.0733ZM187.468 33.9795H180.93V23.7922H187.468C190.205 23.6402 192.486 25.6168 192.79 28.2016C192.79 28.3537 192.79 28.5057 192.79 28.8098C192.942 31.5467 190.661 33.8275 187.924 33.8275C187.772 34.1316 187.62 34.1316 187.468 33.9795ZM213.925 18.0144C210.884 17.8623 207.843 18.9267 205.41 20.7513C203.129 22.7279 201.761 25.6168 201.913 28.6578V42.3422C201.761 45.3832 203.129 48.2721 205.41 50.2487C207.843 52.0733 210.884 53.1377 213.925 52.9856C221.223 52.9856 226.088 48.7283 226.088 42.1902V28.5057C226.088 22.2717 221.223 18.0144 213.925 18.0144ZM213.925 48.1201C210.732 48.2721 207.995 45.8393 207.843 42.6463C207.843 42.4942 207.843 42.1901 207.843 42.0381V28.9619C207.843 25.6168 210.579 22.8799 213.925 22.8799C217.27 22.8799 220.007 25.6168 220.007 28.9619V42.0381C220.159 45.2311 217.726 47.968 214.533 48.1201C214.381 48.2721 214.229 48.2721 213.925 48.1201ZM248.44 52.0733H255.89L243.27 34.8918L255.13 19.2308H248.288L238.404 32.9152H236.276V19.2308H230.498V52.2254H236.276V37.7807H238.404L248.44 52.0733ZM258.931 52.0733H280.674V47.2078H264.709V36.8684H277.937V32.0029H264.709V24.0963H280.674V19.2308H258.931V52.0733ZM302.569 52.0733H310.019L299.832 38.2369V38.0848H299.984C304.85 37.6287 308.499 33.5234 308.499 28.6578C308.499 23.184 304.242 19.0787 298.312 19.0787H284.627V52.0733H290.405V38.0848H293.142L302.569 52.0733ZM296.943 33.3713H290.405V23.9443H296.943C300.136 23.9443 302.265 25.7689 302.265 28.6578C302.113 31.3947 299.984 33.3713 296.943 33.3713Z" fill="white"/>
<path d="M94.659 51.7966H103.585L95.0602 19.3037H82.5244L74 51.7966H82.5244L83.7278 46.4814H93.3553L94.659 51.7966ZM91.851 39.9628H85.1318L86.8367 32.6418L88.2407 26.0229H88.6418L90.1461 32.6418L91.851 39.9628ZM118.527 18C110.504 18 105.189 22.7135 105.189 29.6332V41.3668C105.189 48.2865 110.504 53 118.527 53C126.55 53 131.865 48.5874 131.865 41.9685V40.5645H123.241C123.341 42.0688 122.84 43.6734 121.837 44.7765C119.831 46.5817 116.722 46.3811 114.917 44.3754C114.115 43.5731 113.713 42.4699 113.713 41.2665V29.7335C113.814 27.0258 116.12 24.9198 118.828 25.0201C119.931 25.0201 121.034 25.5215 121.937 26.2235C122.94 27.4269 123.441 28.9312 123.341 30.4355H131.966V29.0315C131.865 22.5129 126.55 18 118.527 18ZM152.725 51.7966H162.754L154.129 39.1605V38.9599H154.229C158.642 37.8567 161.65 33.9456 161.65 29.4327C161.65 23.5158 157.238 19.3037 151.221 19.3037H135.576V51.7966H143.799V39.2607H145.103V39.361L152.725 51.7966ZM149.516 32.7421H143.799V26.2235H149.516C151.622 26.2235 153.126 27.5272 153.126 29.4327C153.126 31.2378 151.722 32.7421 149.917 32.7421C149.817 32.7421 149.716 32.7421 149.516 32.7421Z" fill="white"/>
<path d="M48.9703 60.6369L58.5563 66.7304L49.4161 42.3567L43.6943 46.518L48.9703 60.6369ZM18.2059 39.31L6.16773 70L61.7516 29.2781H0L10.6263 36.1146H41.0191L40.276 36.6348L21.0297 50.6794L25.4883 39.31H18.2059ZM36.0403 26.0085H43.3227L33.5881 0L23.4076 26.0085H30.69L33.3652 19.0977L36.0403 26.0085Z" fill="white"/>
</svg>
