<svg width="292" height="132" viewBox="0 0 292 132" fill="none" xmlns="http://www.w3.org/2000/svg">
<path d="M56.86 48.9C56.94 42.96 62.49 39.04 62.49 39.04C62.49 39.04 68 43 68 48.91V49C67.9791 49.8029 67.6454 50.5659 67.0701 51.1263C66.4947 51.6868 65.7232 52.0002 64.92 52C64.4967 51.9946 64.079 51.9032 63.6922 51.7313C63.3054 51.5594 62.9576 51.3106 62.67 51C62.6799 51.6066 62.8337 52.2021 63.1189 52.7376C63.404 53.2731 63.8122 53.7332 64.31 54.08V54.29H60.46V54.08C60.973 53.7441 61.3961 53.2879 61.6924 52.7511C61.9887 52.2142 62.1492 51.6131 62.16 51C61.7421 51.449 61.199 51.762 60.6011 51.8985C60.0032 52.0351 59.378 51.9888 58.8067 51.7656C58.2354 51.5425 57.7444 51.1528 57.3972 50.6472C57.0501 50.1416 56.8629 49.5433 56.86 48.93V48.9Z" fill="#CF2027"/>
<path d="M24.3 131.31L30.5401 120.78C30.5401 120.78 143.13 85.78 291.44 116.92C291.44 116.92 156.84 92.21 24.3 131.31Z" fill="url(#paint0_linear_1_24)"/>
<path d="M67 96.74C63.728 96.6537 60.6144 95.3134 58.3027 92.9962C55.9911 90.679 54.6583 87.5621 54.58 84.29C54.58 77.74 60.06 71.72 66.92 71.72C68.9229 71.7225 70.8953 72.2106 72.6683 73.1424C74.4413 74.0741 75.9619 75.4218 77.1 77.07H80.39C79.25 74.34 74.49 69.07 66.95 69.07C64.9257 69.018 62.9115 69.3718 61.0261 70.1106C59.1408 70.8493 57.4224 71.958 55.9723 73.3714C54.5222 74.7847 53.3697 76.4741 52.5828 78.3399C51.7959 80.2056 51.3905 82.2101 51.3905 84.235C51.3905 86.2599 51.7959 88.2644 52.5828 90.1302C53.3697 91.9959 54.5222 93.6853 55.9723 95.0986C57.4224 96.512 59.1408 97.6207 61.0261 98.3594C62.9115 99.0982 64.9257 99.452 66.95 99.4C69.7334 99.3669 72.4569 98.5877 74.8367 97.1436C77.2165 95.6996 79.1653 93.6436 80.48 91.19H77.18C73.22 96.54 68.42 96.74 67 96.74Z" fill="#B3B3B3"/>
<path d="M93.62 69.54L81.09 98.88H84.09L88.42 89H102.06L106.31 98.88H109.52L96.91 69.54H93.62ZM89.53 86.35L95.28 72.87L100.91 86.35H89.53Z" fill="#B3B3B3"/>
<path d="M132.64 79C132.666 77.2508 132.187 75.5313 131.259 74.0482C130.331 72.5651 128.994 71.3816 127.41 70.64C126.06 70 124.12 69.53 120.2 69.53H112.74V98.87H115.67V72.19H120.79C122.758 72.0464 124.729 72.4295 126.5 73.3C127.606 73.9474 128.495 74.9079 129.054 76.0603C129.614 77.2126 129.82 78.5051 129.646 79.7744C129.471 81.0436 128.924 82.2327 128.074 83.1913C127.224 84.1499 126.109 84.835 124.87 85.16C123.56 85.56 122.3 85.59 118.57 85.59L128.57 98.88H132.26L123.97 87.93C126.296 87.8699 128.505 86.9017 130.126 85.2326C131.746 83.5635 132.649 81.3263 132.64 79Z" fill="#B3B3B3"/>
<path d="M155.09 72C152.186 70.34 148.884 69.5065 145.54 69.59H137V98.93H145.57C148.915 99.0151 152.219 98.1779 155.12 96.51C157.167 95.1873 158.851 93.3727 160.016 91.2319C161.182 89.0912 161.793 86.6925 161.793 84.255C161.793 81.8175 161.182 79.4188 160.016 77.2781C158.851 75.1373 157.167 73.3227 155.12 72H155.09ZM154.22 93.89C150.85 96.27 146.8 96.27 144.15 96.27H139.9V72.27H144.15C148.47 72.27 151.21 72.83 153.82 74.53C155.359 75.6431 156.614 77.1033 157.482 78.7921C158.351 80.481 158.809 82.3509 158.82 84.25C158.815 86.0901 158.4 87.906 157.604 89.5651C156.808 91.2242 155.652 92.6847 154.22 93.84V93.89Z" fill="#B3B3B3"/>
<path d="M186.23 79C186.253 77.2527 185.772 75.5358 184.844 74.0549C183.917 72.574 182.582 71.3919 181 70.65C179.65 70.01 177.71 69.54 173.79 69.54H166.33V98.88H169.26V72.19H174.38C176.348 72.0463 178.319 72.4294 180.09 73.3C181.196 73.9473 182.085 74.9078 182.644 76.0602C183.204 77.2126 183.41 78.5051 183.236 79.7743C183.061 81.0436 182.514 82.2326 181.664 83.1912C180.814 84.1498 179.699 84.8349 178.46 85.16C177.15 85.56 175.89 85.59 172.16 85.59L182.11 98.88H185.8L177.5 87.93C179.835 87.8828 182.059 86.9205 183.691 85.2504C185.324 83.5802 186.236 81.3357 186.23 79Z" fill="#B3B3B3"/>
<path d="M204.83 69C202.804 68.9868 200.796 69.3735 198.92 70.1377C197.044 70.902 195.337 72.0289 193.897 73.4539C192.457 74.8789 191.313 76.5739 190.529 78.442C189.745 80.31 189.338 82.3143 189.33 84.34C189.33 92.59 196.51 99.34 204.83 99.34C213.15 99.34 220.37 92.8 220.37 84.16C220.304 80.0939 218.634 76.2186 215.723 73.3789C212.812 70.5392 208.897 68.9652 204.83 69ZM204.83 96.72C202.354 96.7042 199.937 95.9549 197.887 94.5667C195.836 93.1786 194.242 91.2138 193.307 88.9206C192.372 86.6273 192.138 84.1085 192.634 81.6821C193.129 79.2558 194.333 77.0307 196.092 75.288C197.852 73.5452 200.088 72.3629 202.519 71.8905C204.95 71.418 207.467 71.6764 209.751 72.6332C212.035 73.59 213.985 75.2022 215.353 77.2663C216.722 79.3303 217.448 81.7535 217.44 84.23C217.408 87.5554 216.067 90.7341 213.706 93.0763C211.345 95.4184 208.156 96.7349 204.83 96.74V96.72Z" fill="#B3B3B3"/>
<path d="M239.3 69C237.273 68.9855 235.264 69.3712 233.387 70.1349C231.51 70.8985 229.801 72.0252 228.361 73.4503C226.92 74.8755 225.774 76.5709 224.99 78.4396C224.206 80.3083 223.798 82.3134 223.79 84.34C223.79 92.59 230.97 99.34 239.3 99.34C247.63 99.34 254.84 92.8 254.84 84.16C254.774 80.0939 253.104 76.2186 250.193 73.3789C247.282 70.5392 243.366 68.9652 239.3 69ZM239.3 96.72C236.824 96.7042 234.407 95.9549 232.356 94.5667C230.306 93.1786 228.712 91.2138 227.777 88.9206C226.842 86.6273 226.608 84.1085 227.104 81.6821C227.599 79.2558 228.803 77.0307 230.562 75.288C232.322 73.5452 234.558 72.3629 236.989 71.8905C239.42 71.418 241.937 71.6764 244.221 72.6332C246.505 73.59 248.455 75.2022 249.823 77.2663C251.192 79.3303 251.918 81.7535 251.91 84.23C251.876 87.5546 250.533 90.7318 248.173 93.0734C245.813 95.415 242.625 96.7323 239.3 96.74V96.72Z" fill="#B3B3B3"/>
<path d="M274.76 94.52L264.09 69.54H259.57V98.88H262.51V72.75H262.58L273.49 98.88H275.99L286.97 72.75H287.05V98.88H289.98V69.54H285.46L274.76 94.52Z" fill="#B3B3B3"/>
<path d="M62.43 1.32001L42.67 48.37H0L32.12 77.28L21.11 131.51L46.33 76.84L23.6 57.26H50.06L67.52 14.91L62.43 1.32001Z" fill="url(#paint1_linear_1_24)"/>
<path d="M59.16 9.26L62.87 0L88.36 65H77L62.73 26.17" fill="url(#paint2_linear_1_24)"/>
<path d="M94.29 30.85H103.15L112.34 57H112.43L121.53 30.88H130.39V65.36H124V39.48H123.86L115 65.36H109.59L100.73 39.48H100.64V65.36H94.29V30.85Z" fill="url(#paint3_linear_1_24)"/>
<path d="M136.17 30.85H154.73V36.85H142.56V45.29H154.22V51.29H142.56V59.4H154.73V65.4H136.17V30.85Z" fill="url(#paint4_linear_1_24)"/>
<path d="M160.56 30.85H171.15C175.15 30.85 177.59 31.6 179.54 33.19C180.802 34.1839 181.823 35.4505 182.526 36.8947C183.229 38.339 183.596 39.9237 183.6 41.53C183.596 44.6058 182.411 47.5626 180.29 49.79C178.696 51.2781 176.7 52.2655 174.55 52.63L183.93 65.36H176.19L167.05 52.17H167V65.36H160.61L160.56 30.85ZM167 47.36H171.11C176.38 47.36 177.26 43.87 177.26 42.05C177.26 40.23 176.1 36.82 171.11 36.82H167V47.36Z" fill="url(#paint5_linear_1_24)"/>
<path d="M188 30.85H194.39V65.36H188V30.85Z" fill="url(#paint6_linear_1_24)"/>
<path d="M233.22 55.76C231.833 58.8288 229.591 61.4327 226.762 63.2595C223.933 65.0864 220.638 66.0587 217.27 66.06C212.495 66.0128 207.931 64.0889 204.563 60.704C201.195 57.3191 199.293 52.745 199.27 47.97C199.317 43.2515 201.215 38.7402 204.555 35.4073C207.896 32.0744 212.411 30.1865 217.13 30.15C220.574 30.1345 223.949 31.1232 226.84 32.9951C229.731 34.867 232.014 37.541 233.41 40.69H226.13C223.66 37.85 220.72 36.12 216.9 36.12C211.3 36.12 205.66 41.12 205.66 48.06C205.66 54.55 211.02 60.06 217.13 60.06C221.75 60.06 224.27 57.36 225.81 55.73L233.22 55.76Z" fill="url(#paint7_linear_1_24)"/>
<path d="M246.9 30.85H251.9L266.36 65.36H259.3L255.62 56.46H243.26L239.58 65.36H232.53L246.9 30.85ZM245.41 50.44H253.33L249.42 39.85H249.32L245.41 50.44Z" fill="url(#paint8_linear_1_24)"/>
<path d="M274 55.48C274.33 58.93 276.62 60.09 278.57 60.09C279.169 60.1264 279.769 60.0425 280.334 59.8432C280.9 59.6439 281.42 59.3333 281.864 58.9296C282.308 58.526 282.666 58.0376 282.918 57.4932C283.17 56.9488 283.31 56.3594 283.33 55.76C283.33 52.21 281.05 51.56 276.76 49.93C274.1 48.93 268.55 47.27 268.55 39.99C268.542 38.6719 268.801 37.3659 269.311 36.1502C269.82 34.9345 270.57 33.8343 271.515 32.9154C272.46 31.9965 273.581 31.278 274.81 30.8028C276.04 30.3276 277.353 30.1055 278.67 30.15C281.321 30.1306 283.874 31.1513 285.781 32.9928C287.688 34.8343 288.797 37.35 288.87 40H282.34C282.06 36.93 280.2 36.13 278.47 36.13C278.004 36.1135 277.54 36.1924 277.105 36.362C276.671 36.5315 276.276 36.788 275.944 37.1158C275.613 37.4436 275.352 37.8357 275.177 38.2681C275.003 38.7004 274.919 39.1639 274.93 39.63C274.93 42.63 277.17 43.27 280.66 44.43C283.51 45.37 289.66 47.56 289.66 55.07C289.66 62.58 283.88 66.07 278.47 66.07C274.04 66.07 267.6 63.07 267.23 55.49L274 55.48Z" fill="url(#paint9_linear_1_24)"/>
<defs>
<linearGradient id="paint0_linear_1_24" x1="24.3" y1="117.67" x2="291.44" y2="117.67" gradientUnits="userSpaceOnUse">
<stop offset="0.33" stop-color="#E01E26"/>
<stop offset="1" stop-color="#9B1C1F"/>
</linearGradient>
<linearGradient id="paint1_linear_1_24" x1="33.76" y1="63.17" x2="33.76" y2="31.17" gradientUnits="userSpaceOnUse">
<stop offset="0.01" stop-color="#999999"/>
<stop offset="1" stop-color="white"/>
</linearGradient>
<linearGradient id="paint2_linear_1_24" x1="73.76" y1="64.17" x2="73.76" y2="30.15" gradientUnits="userSpaceOnUse">
<stop offset="0.01" stop-color="#999999"/>
<stop offset="1" stop-color="white"/>
</linearGradient>
<linearGradient id="paint3_linear_1_24" x1="112.34" y1="65.17" x2="112.34" y2="29.17" gradientUnits="userSpaceOnUse">
<stop offset="0.01" stop-color="#999999"/>
<stop offset="1" stop-color="white"/>
</linearGradient>
<linearGradient id="paint4_linear_1_24" x1="145.45" y1="65.17" x2="145.45" y2="29.17" gradientUnits="userSpaceOnUse">
<stop offset="0.01" stop-color="#999999"/>
<stop offset="1" stop-color="white"/>
</linearGradient>
<linearGradient id="paint5_linear_1_24" x1="172.25" y1="65.17" x2="172.25" y2="29.17" gradientUnits="userSpaceOnUse">
<stop offset="0.01" stop-color="#999999"/>
<stop offset="1" stop-color="white"/>
</linearGradient>
<linearGradient id="paint6_linear_1_24" x1="191.18" y1="65.17" x2="191.18" y2="29.17" gradientUnits="userSpaceOnUse">
<stop offset="0.01" stop-color="#999999"/>
<stop offset="1" stop-color="white"/>
</linearGradient>
<linearGradient id="paint7_linear_1_24" x1="216.34" y1="65.17" x2="216.34" y2="29.17" gradientUnits="userSpaceOnUse">
<stop offset="0.01" stop-color="#999999"/>
<stop offset="1" stop-color="white"/>
</linearGradient>
<linearGradient id="paint8_linear_1_24" x1="249.44" y1="65.17" x2="249.44" y2="29.17" gradientUnits="userSpaceOnUse">
<stop offset="0.01" stop-color="#999999"/>
<stop offset="1" stop-color="white"/>
</linearGradient>
<linearGradient id="paint9_linear_1_24" x1="278.49" y1="65.17" x2="278.49" y2="29.17" gradientUnits="userSpaceOnUse">
<stop offset="0.01" stop-color="#999999"/>
<stop offset="1" stop-color="white"/>
</linearGradient>
</defs>
</svg>
